<svg width="890" height="300" viewBox="0 0 890 300" fill="none" xmlns="http://www.w3.org/2000/svg">
<g clip-path="url(#clip0_401_3914)">
<path d="M1074.04 97C959.755 114.287 780.581 149.273 871.734 259.714C987.732 400.257 1271.19 363.438 1145.3 471.914" stroke="#2F145E"/>
<path d="M1042.13 123.51C927.853 140.797 748.679 175.783 839.831 286.224C955.829 426.767 1239.29 389.948 1113.4 498.424" stroke="#2F145E"/>
<path d="M1008.72 148C894.437 165.287 715.263 200.273 806.415 310.714C922.413 451.257 1205.88 414.438 1079.98 522.914" stroke="#2F145E"/>
<path d="M973.622 169.9C859.34 187.188 680.166 222.173 771.319 332.614C887.316 473.157 1170.78 436.338 1044.88 544.814" stroke="#2F145E"/>
<path d="M936.775 188.53C822.493 205.818 643.32 240.803 734.472 351.244C850.47 491.787 1133.93 454.968 1008.04 563.444" stroke="#2F145E"/>
<path d="M898.284 207.202C784.002 224.49 604.828 259.475 695.981 369.916C811.979 510.459 1095.44 473.641 969.546 582.117" stroke="#2F145E"/>
</g>
<defs>
<clipPath id="clip0_401_3914">
<rect width="890" height="300" fill="white"/>
</clipPath>
</defs>
</svg>
