<svg width="890" height="300" viewBox="0 0 890 300" fill="none" xmlns="http://www.w3.org/2000/svg">
<g clip-path="url(#clip0_333_3849)">
<path d="M1080.33 -130C966.052 -112.713 786.878 -77.7271 878.031 32.7134C994.028 173.257 1277.49 136.438 1151.6 244.914" stroke="#2F145E"/>
<path d="M1048.43 -104.49C934.149 -87.2026 754.976 -52.2171 846.128 58.2234C962.126 198.767 1245.59 161.948 1119.69 270.424" stroke="#2F145E"/>
<path d="M1015.02 -81.0001C900.733 -63.7126 721.56 -28.7271 812.712 81.7134C928.71 222.257 1212.17 185.438 1086.28 293.914" stroke="#2F145E"/>
<path d="M979.919 -60.1016C865.637 -42.8141 686.463 -7.82852 777.616 102.612C893.613 243.155 1177.08 206.337 1051.18 314.813" stroke="#2F145E"/>
<path d="M943.072 -42.4729C828.79 -25.1854 649.617 9.80014 740.769 120.241C856.767 260.784 1140.23 223.966 1014.33 332.441" stroke="#2F145E"/>
<path d="M904.581 -28.7976C790.299 -11.5101 611.125 23.4754 702.278 133.916C818.275 274.459 1101.74 237.641 975.842 346.117" stroke="#2F145E"/>
<path d="M864.793 -19.5585C750.511 -2.27098 571.337 32.7146 662.49 143.155C778.487 283.698 1061.95 246.88 936.054 355.356" stroke="#2F145E"/>
<path d="M824.225 -14.7981C709.942 2.48939 530.769 37.4749 621.921 147.915C737.919 288.459 1021.38 251.64 895.486 360.116" stroke="#2F145E"/>
<path d="M783.384 -14.0447C669.102 3.24281 489.928 38.2284 581.08 148.669C697.078 289.212 980.54 252.394 854.645 360.869" stroke="#2F145E"/>
<path d="M742.607 -16.4646C628.325 0.822889 449.152 35.8084 540.304 146.249C656.302 286.792 939.764 249.974 813.869 358.45" stroke="#2F145E"/>
<path d="M702.027 -21.1217C587.745 -3.83422 408.572 31.1513 499.724 141.592C615.722 282.135 899.184 245.317 773.289 353.792" stroke="#2F145E"/>
<path d="M661.628 -27.1536C547.346 -9.86608 368.172 25.1195 459.325 135.56C575.322 276.103 858.785 239.285 732.889 347.761" stroke="#2F145E"/>
<path d="M621.334 -33.8512C507.052 -16.5637 327.878 18.4218 419.031 128.862C535.028 269.406 818.491 232.587 692.595 341.063" stroke="#2F145E"/>
<path d="M581.058 -40.6611C466.775 -23.3736 287.602 11.6119 378.754 122.052C494.752 262.596 778.214 225.777 652.319 334.253" stroke="#2F145E"/>
<path d="M540.731 -47.1669C426.449 -29.8794 247.276 5.10617 338.428 115.547C454.426 256.09 737.888 219.272 611.993 327.747" stroke="#2F145E"/>
<path d="M500.312 -53.0627C386.03 -35.7753 206.857 -0.789704 298.009 109.651C414.007 250.194 697.469 213.376 571.574 321.851" stroke="#2F145E"/>
<path d="M459.78 -58.1313C345.498 -40.8439 166.325 -5.85831 257.477 104.582C373.475 245.126 656.937 208.307 531.042 316.783" stroke="#2F145E"/>
<path d="M419.139 -62.2251C304.856 -44.9376 125.683 -9.95206 216.835 100.488C332.833 241.032 616.295 204.213 490.4 312.689" stroke="#2F145E"/>
<path d="M378.151 -65.2888C263.869 -48.0013 84.6957 -13.0158 175.848 97.4247C291.846 237.968 575.308 201.15 449.413 309.625" stroke="#2F145E"/>
<path d="M337.373 -67.6471C223.091 -50.3596 43.9173 -15.3741 135.07 95.0664C251.067 235.61 534.53 198.791 408.634 307.267" stroke="#2F145E"/>
<path d="M296.564 -69.4165C182.282 -52.129 3.10876 -17.1435 94.2611 93.297C210.259 233.84 493.721 197.022 367.826 305.498" stroke="#2F145E"/>
<path d="M255.731 -70.5155C141.449 -53.228 -37.7243 -18.2425 53.4281 92.198C169.426 232.741 452.888 195.923 326.993 304.399" stroke="#2F145E"/>
<path d="M214.886 -70.8433C100.603 -53.5558 -78.57 -18.5702 12.5824 91.8703C128.58 232.414 412.042 195.595 286.147 304.071" stroke="#2F145E"/>
<path d="M174.043 -70.27C59.7607 -52.9825 -119.413 -17.997 -28.2604 92.4435C87.7374 232.987 371.2 196.168 245.304 304.644" stroke="#2F145E"/>
<path d="M133.228 -68.6261C18.9463 -51.3386 -160.227 -16.3531 -69.0748 94.0874C46.9229 234.631 330.385 197.812 204.49 306.288" stroke="#2F145E"/>
<path d="M92.4873 -65.6813C-21.7949 -48.3938 -200.968 -13.4082 -109.816 97.0323C6.18173 237.576 289.644 200.757 163.749 309.233" stroke="#2F145E"/>
<path d="M51.8955 -61.1121C-62.3867 -43.8246 -241.56 -8.83902 -150.408 101.601C-34.4101 242.145 249.052 205.326 123.157 313.802" stroke="#2F145E"/>
<path d="M11.5918 -54.4525C-102.69 -37.165 -281.864 -2.17947 -190.712 108.261C-74.7138 248.804 208.748 211.986 82.8532 320.462" stroke="#2F145E"/>
<path d="M-28.1436 -45.0372C-142.426 -27.7497 -321.599 7.23581 -230.447 117.676C-114.449 258.22 169.013 221.401 43.1179 329.877" stroke="#2F145E"/>
<path d="M-66.7158 -32.4786C-180.998 -15.1911 -360.172 19.7944 -269.019 130.235C-153.021 270.778 130.441 233.96 4.54559 342.436" stroke="#2F145E"/>
</g>
<defs>
<clipPath id="clip0_333_3849">
<rect width="890" height="300" fill="white"/>
</clipPath>
</defs>
</svg>
