<svg xmlns="http://www.w3.org/2000/svg">
    <symbol id="RobertoArlt" viewBox="0 0 40 40">
        <rect width="40" height="40" fill="#00632E"/>
        <path d="M32.9581 14.1085C32.753 14.8125 32.0551 15.3515 30.9865 14.9783C29.9188 14.6056 28.3995 13.6525 28.3995 13.6525L27.8655 13.6937L27.6597 13.8597C27.6597 13.8597 28.1726 14.6472 28.2145 14.9573C28.2556 15.2685 28.2767 15.7032 28.2767 15.7032C28.2767 15.7032 28.9542 16.5734 29.0773 16.9254C29.2001 17.2781 29.2617 18.0858 29.2617 18.0858C29.2617 18.0858 29.8987 18.9457 30.053 19.5981C30.2065 20.2506 30.0838 21.8976 30.0838 21.8976C30.0838 21.8976 30.33 22.8919 30.2996 23.5754C30.2681 24.2589 29.8067 25.6889 29.8067 25.6889C29.8067 25.6889 29.9295 26.6832 29.8067 27.1801C29.6833 27.6776 29.2828 28.7934 29.2828 28.7934C29.2828 28.7934 30.4531 28.9827 30.7924 29.6972C31.1317 30.4124 31.9012 32.3076 31.3164 32.6802C30.7302 33.0531 28.975 33.0224 28.1124 32.3386C27.2499 31.6548 27.2499 31.6551 27.2499 31.6551C27.2499 31.6551 26.7878 32.3386 25.7402 32.7116C24.6933 33.0842 24.1998 33.0535 24.1998 33.0535C24.1998 33.0535 23.4607 33.6441 22.9374 33.8925C22.4135 34.1409 21.7972 34.4204 21.7972 34.4204C21.7972 34.4204 21.8286 35.7877 21.3666 36.3479C20.9045 36.9065 20.0008 37 20.0008 37C20.0008 37 19.0971 36.9068 18.6351 36.3479C18.173 35.7877 18.2038 34.4204 18.2038 34.4204C18.2038 34.4204 17.5868 34.1409 17.0635 33.8925C16.5402 33.6441 15.8012 33.0535 15.8012 33.0535C15.8012 33.0535 15.3076 33.0842 14.2607 32.7116C13.2138 32.339 12.7511 31.6551 12.7511 31.6551C12.7511 31.6551 12.7511 31.6552 11.8886 32.3386C11.026 33.0221 9.27046 33.0531 8.68528 32.6802C8.09977 32.3076 8.87031 30.4124 9.20857 29.6972C9.54783 28.9827 10.7182 28.7934 10.7182 28.7934C10.7182 28.7934 10.3174 27.6772 10.1939 27.1801C10.0718 26.6832 10.1939 25.6889 10.1939 25.6889C10.1939 25.6889 9.73286 24.2592 9.70174 23.5754C9.67029 22.8923 9.91688 21.8976 9.91688 21.8976C9.91688 21.8976 9.79375 20.2506 9.94833 19.5981C10.1016 18.9454 10.7383 18.0858 10.7383 18.0858C10.7383 18.0858 10.8005 17.2781 10.923 16.9254C11.0464 16.5734 11.7236 15.7032 11.7236 15.7032C11.7236 15.7032 11.7444 15.2685 11.7855 14.9573C11.8267 14.6472 12.3402 13.8597 12.3402 13.8597L12.1351 13.6937L11.6008 13.6525C11.6008 13.6525 10.0805 14.6053 9.01317 14.9783C7.94485 15.3512 7.24692 14.8125 7.04182 14.1085C6.83672 13.4041 7.45269 12.5752 7.45269 12.5752C7.45269 12.5752 8.47884 11.6642 9.1363 11.1667C9.79341 10.6696 12.0117 10.2554 12.7919 10.2554C13.5722 10.2554 15.7901 10.8768 15.9136 10.918C16.037 10.9595 16.6931 10.5865 16.8578 10.5042C17.0217 10.4208 18.1315 9.84096 18.1315 9.84096C18.1315 9.84096 18.2131 9.5507 18.2131 9.42616C18.2131 9.30195 17.7615 8.97086 17.3918 8.26613C17.0224 7.56174 17.1867 6.85734 17.1462 6.36052C17.105 5.86337 17.6795 4.86905 18.2131 3.87507C18.7471 2.88076 20.0005 3.00496 20.0005 3.00496C20.0005 3.00496 21.2532 2.88076 21.7871 3.87507C22.3211 4.86905 22.8959 5.8637 22.8541 6.36052C22.8136 6.85768 22.9783 7.56174 22.6085 8.26613C22.2388 8.97086 21.7871 9.30161 21.7871 9.42616C21.7871 9.5507 21.8688 9.84096 21.8688 9.84096C21.8688 9.84096 22.9783 10.4208 23.1425 10.5042C23.3072 10.5862 23.9639 10.9595 24.0874 10.918C24.2102 10.8768 26.4281 10.2554 27.2084 10.2554C27.9886 10.2554 30.2066 10.6699 30.864 11.1667C31.5215 11.6642 32.548 12.5752 32.548 12.5752C32.548 12.5752 33.1632 13.4041 32.9581 14.1085Z" fill="#fff"/>
    </symbol>
    <symbol id="uba" viewBox="0 0 40 40">
        <rect width="40" height="40" fill="#142457"/>
        <path d="M5.75087 25.047C5.41488 25.047 5.13021 24.9443 4.89688 24.739C4.66354 24.5337 4.54688 24.2397 4.54688 23.857C4.54688 23.465 4.66354 23.157 4.89688 22.933C5.13954 22.709 5.42421 22.597 5.75087 22.597C6.07754 22.597 6.35754 22.709 6.59087 22.933C6.82421 23.1477 6.94088 23.451 6.94088 23.843C6.94088 24.235 6.82421 24.5337 6.59087 24.739C6.35754 24.9443 6.07754 25.047 5.75087 25.047Z" fill="#fff"/>
        <path d="M11.7361 24.977C10.7654 24.977 9.96743 24.795 9.34209 24.431C8.72609 24.067 8.26876 23.5443 7.97009 22.863C7.68076 22.1817 7.53609 21.365 7.53609 20.413V14.953H9.53809V20.511C9.53809 20.959 9.60343 21.3837 9.73409 21.785C9.87409 22.177 10.1028 22.499 10.4201 22.751C10.7468 22.9937 11.1901 23.115 11.7501 23.115C12.3194 23.115 12.7581 22.9937 13.0661 22.751C13.3741 22.499 13.5888 22.1723 13.7101 21.771C13.8314 21.3697 13.8921 20.9497 13.8921 20.511V14.953H15.8941V20.413C15.8941 21.3557 15.7494 22.1723 15.4601 22.863C15.1708 23.5443 14.7181 24.067 14.1021 24.431C13.4861 24.795 12.6974 24.977 11.7361 24.977Z" fill="#fff"/>
        <path d="M17.4944 24.865V14.953H21.8344C22.2917 14.953 22.707 14.9997 23.0804 15.093C23.463 15.177 23.7944 15.317 24.0744 15.513C24.3544 15.709 24.569 15.9703 24.7184 16.297C24.877 16.6237 24.9564 17.039 24.9564 17.543C24.9564 17.9537 24.863 18.3363 24.6764 18.691C24.4897 19.0457 24.2144 19.3163 23.8504 19.503C24.3357 19.6617 24.7184 19.937 24.9984 20.329C25.2784 20.7117 25.4184 21.2203 25.4184 21.855C25.4184 22.4243 25.311 22.905 25.0964 23.297C24.8817 23.6797 24.5877 23.9877 24.2144 24.221C23.841 24.4543 23.407 24.6223 22.9124 24.725C22.4177 24.8183 21.8904 24.865 21.3304 24.865H17.4944ZM19.4964 23.017H21.5684C21.8204 23.017 22.0537 22.9983 22.2684 22.961C22.4924 22.9237 22.6884 22.863 22.8564 22.779C23.0244 22.6857 23.155 22.5597 23.2484 22.401C23.351 22.2423 23.4024 22.0463 23.4024 21.813C23.4024 21.5983 23.3604 21.421 23.2764 21.281C23.2017 21.1317 23.0897 21.0103 22.9404 20.917C22.8004 20.8237 22.6324 20.7583 22.4364 20.721C22.2497 20.6837 22.0397 20.665 21.8064 20.665H19.4964V23.017ZM19.4964 18.999H21.3304C21.5824 18.999 21.811 18.9757 22.0164 18.929C22.2217 18.8823 22.3944 18.8077 22.5344 18.705C22.6744 18.6023 22.7817 18.4763 22.8564 18.327C22.931 18.1683 22.9684 17.9863 22.9684 17.781C22.9777 17.501 22.917 17.2957 22.7864 17.165C22.6557 17.025 22.4784 16.9317 22.2544 16.885C22.0304 16.829 21.7784 16.801 21.4984 16.801H19.4964V18.999Z" fill="#fff"/>
        <path d="M25.527 24.865L29.391 14.953H31.631L35.453 24.865H33.297L32.681 23.171H28.299L27.683 24.865H25.527ZM28.943 21.365H32.051L30.511 17.081L28.943 21.365Z" fill="#fff"/>
    </symbol>
    <symbol viewBox="0 0 40 40" fill="none" xmlns="http://www.w3.org/2000/svg">
        <rect width="40" height="40" fill="#030914"/>
        <path d="M34.7057 29.2308C34.8677 29.2308 35 29.1041 35 28.9458V11.0542C35 10.8959 34.8677 10.7692 34.7057 10.7692H21.448C21.286 10.7692 21.1538 10.8959 21.1538 11.0542V28.9458C21.1538 29.1041 21.286 29.2308 21.448 29.2308H34.7057Z" fill="#00EA64"/>
        <path d="M18.8462 10.7692H14.1311V17.6579H9.71508V10.7692H5V29.2308H9.71508V21.7684H14.1311V29.2308H18.8462V10.7692Z" fill="#fff"/>
    </symbol>
</svg>
