<svg xmlns="http://www.w3.org/2000/svg">
    <symbol id="RobertoArlt" viewBox="0 0 40 40">
        <rect width="40" height="40" fill="#00632E"/>
        <path d="M32.9581 14.1085C32.753 14.8125 32.0551 15.3515 30.9865 14.9783C29.9188 14.6056 28.3995 13.6525 28.3995 13.6525L27.8655 13.6937L27.6597 13.8597C27.6597 13.8597 28.1726 14.6472 28.2145 14.9573C28.2556 15.2685 28.2767 15.7032 28.2767 15.7032C28.2767 15.7032 28.9542 16.5734 29.0773 16.9254C29.2001 17.2781 29.2617 18.0858 29.2617 18.0858C29.2617 18.0858 29.8987 18.9457 30.053 19.5981C30.2065 20.2506 30.0838 21.8976 30.0838 21.8976C30.0838 21.8976 30.33 22.8919 30.2996 23.5754C30.2681 24.2589 29.8067 25.6889 29.8067 25.6889C29.8067 25.6889 29.9295 26.6832 29.8067 27.1801C29.6833 27.6776 29.2828 28.7934 29.2828 28.7934C29.2828 28.7934 30.4531 28.9827 30.7924 29.6972C31.1317 30.4124 31.9012 32.3076 31.3164 32.6802C30.7302 33.0531 28.975 33.0224 28.1124 32.3386C27.2499 31.6548 27.2499 31.6551 27.2499 31.6551C27.2499 31.6551 26.7878 32.3386 25.7402 32.7116C24.6933 33.0842 24.1998 33.0535 24.1998 33.0535C24.1998 33.0535 23.4607 33.6441 22.9374 33.8925C22.4135 34.1409 21.7972 34.4204 21.7972 34.4204C21.7972 34.4204 21.8286 35.7877 21.3666 36.3479C20.9045 36.9065 20.0008 37 20.0008 37C20.0008 37 19.0971 36.9068 18.6351 36.3479C18.173 35.7877 18.2038 34.4204 18.2038 34.4204C18.2038 34.4204 17.5868 34.1409 17.0635 33.8925C16.5402 33.6441 15.8012 33.0535 15.8012 33.0535C15.8012 33.0535 15.3076 33.0842 14.2607 32.7116C13.2138 32.339 12.7511 31.6551 12.7511 31.6551C12.7511 31.6551 12.7511 31.6552 11.8886 32.3386C11.026 33.0221 9.27046 33.0531 8.68528 32.6802C8.09977 32.3076 8.87031 30.4124 9.20857 29.6972C9.54783 28.9827 10.7182 28.7934 10.7182 28.7934C10.7182 28.7934 10.3174 27.6772 10.1939 27.1801C10.0718 26.6832 10.1939 25.6889 10.1939 25.6889C10.1939 25.6889 9.73286 24.2592 9.70174 23.5754C9.67029 22.8923 9.91688 21.8976 9.91688 21.8976C9.91688 21.8976 9.79375 20.2506 9.94833 19.5981C10.1016 18.9454 10.7383 18.0858 10.7383 18.0858C10.7383 18.0858 10.8005 17.2781 10.923 16.9254C11.0464 16.5734 11.7236 15.7032 11.7236 15.7032C11.7236 15.7032 11.7444 15.2685 11.7855 14.9573C11.8267 14.6472 12.3402 13.8597 12.3402 13.8597L12.1351 13.6937L11.6008 13.6525C11.6008 13.6525 10.0805 14.6053 9.01317 14.9783C7.94485 15.3512 7.24692 14.8125 7.04182 14.1085C6.83672 13.4041 7.45269 12.5752 7.45269 12.5752C7.45269 12.5752 8.47884 11.6642 9.1363 11.1667C9.79341 10.6696 12.0117 10.2554 12.7919 10.2554C13.5722 10.2554 15.7901 10.8768 15.9136 10.918C16.037 10.9595 16.6931 10.5865 16.8578 10.5042C17.0217 10.4208 18.1315 9.84096 18.1315 9.84096C18.1315 9.84096 18.2131 9.5507 18.2131 9.42616C18.2131 9.30195 17.7615 8.97086 17.3918 8.26613C17.0224 7.56174 17.1867 6.85734 17.1462 6.36052C17.105 5.86337 17.6795 4.86905 18.2131 3.87507C18.7471 2.88076 20.0005 3.00496 20.0005 3.00496C20.0005 3.00496 21.2532 2.88076 21.7871 3.87507C22.3211 4.86905 22.8959 5.8637 22.8541 6.36052C22.8136 6.85768 22.9783 7.56174 22.6085 8.26613C22.2388 8.97086 21.7871 9.30161 21.7871 9.42616C21.7871 9.5507 21.8688 9.84096 21.8688 9.84096C21.8688 9.84096 22.9783 10.4208 23.1425 10.5042C23.3072 10.5862 23.9639 10.9595 24.0874 10.918C24.2102 10.8768 26.4281 10.2554 27.2084 10.2554C27.9886 10.2554 30.2066 10.6699 30.864 11.1667C31.5215 11.6642 32.548 12.5752 32.548 12.5752C32.548 12.5752 33.1632 13.4041 32.9581 14.1085Z" fill="#fff"/>
    </symbol>
    <symbol id="uba" viewBox="0 0 40 40">
        <rect width="40" height="40" fill="#142457"/>
        <path d="M5.75087 25.047C5.41488 25.047 5.13021 24.9443 4.89688 24.739C4.66354 24.5337 4.54688 24.2397 4.54688 23.857C4.54688 23.465 4.66354 23.157 4.89688 22.933C5.13954 22.709 5.42421 22.597 5.75087 22.597C6.07754 22.597 6.35754 22.709 6.59087 22.933C6.82421 23.1477 6.94088 23.451 6.94088 23.843C6.94088 24.235 6.82421 24.5337 6.59087 24.739C6.35754 24.9443 6.07754 25.047 5.75087 25.047Z" fill="#fff"/>
        <path d="M11.7361 24.977C10.7654 24.977 9.96743 24.795 9.34209 24.431C8.72609 24.067 8.26876 23.5443 7.97009 22.863C7.68076 22.1817 7.53609 21.365 7.53609 20.413V14.953H9.53809V20.511C9.53809 20.959 9.60343 21.3837 9.73409 21.785C9.87409 22.177 10.1028 22.499 10.4201 22.751C10.7468 22.9937 11.1901 23.115 11.7501 23.115C12.3194 23.115 12.7581 22.9937 13.0661 22.751C13.3741 22.499 13.5888 22.1723 13.7101 21.771C13.8314 21.3697 13.8921 20.9497 13.8921 20.511V14.953H15.8941V20.413C15.8941 21.3557 15.7494 22.1723 15.4601 22.863C15.1708 23.5443 14.7181 24.067 14.1021 24.431C13.4861 24.795 12.6974 24.977 11.7361 24.977Z" fill="#fff"/>
        <path d="M17.4944 24.865V14.953H21.8344C22.2917 14.953 22.707 14.9997 23.0804 15.093C23.463 15.177 23.7944 15.317 24.0744 15.513C24.3544 15.709 24.569 15.9703 24.7184 16.297C24.877 16.6237 24.9564 17.039 24.9564 17.543C24.9564 17.9537 24.863 18.3363 24.6764 18.691C24.4897 19.0457 24.2144 19.3163 23.8504 19.503C24.3357 19.6617 24.7184 19.937 24.9984 20.329C25.2784 20.7117 25.4184 21.2203 25.4184 21.855C25.4184 22.4243 25.311 22.905 25.0964 23.297C24.8817 23.6797 24.5877 23.9877 24.2144 24.221C23.841 24.4543 23.407 24.6223 22.9124 24.725C22.4177 24.8183 21.8904 24.865 21.3304 24.865H17.4944ZM19.4964 23.017H21.5684C21.8204 23.017 22.0537 22.9983 22.2684 22.961C22.4924 22.9237 22.6884 22.863 22.8564 22.779C23.0244 22.6857 23.155 22.5597 23.2484 22.401C23.351 22.2423 23.4024 22.0463 23.4024 21.813C23.4024 21.5983 23.3604 21.421 23.2764 21.281C23.2017 21.1317 23.0897 21.0103 22.9404 20.917C22.8004 20.8237 22.6324 20.7583 22.4364 20.721C22.2497 20.6837 22.0397 20.665 21.8064 20.665H19.4964V23.017ZM19.4964 18.999H21.3304C21.5824 18.999 21.811 18.9757 22.0164 18.929C22.2217 18.8823 22.3944 18.8077 22.5344 18.705C22.6744 18.6023 22.7817 18.4763 22.8564 18.327C22.931 18.1683 22.9684 17.9863 22.9684 17.781C22.9777 17.501 22.917 17.2957 22.7864 17.165C22.6557 17.025 22.4784 16.9317 22.2544 16.885C22.0304 16.829 21.7784 16.801 21.4984 16.801H19.4964V18.999Z" fill="#fff"/>
        <path d="M25.527 24.865L29.391 14.953H31.631L35.453 24.865H33.297L32.681 23.171H28.299L27.683 24.865H25.527ZM28.943 21.365H32.051L30.511 17.081L28.943 21.365Z" fill="#fff"/>
    </symbol>
    <symbol id="HackerRank" viewBox="0 0 40 40">
        <rect width="40" height="40" fill="#030914"/>
        <path d="M34.7057 29.2308C34.8677 29.2308 35 29.1041 35 28.9458V11.0542C35 10.8959 34.8677 10.7692 34.7057 10.7692H21.448C21.286 10.7692 21.1538 10.8959 21.1538 11.0542V28.9458C21.1538 29.1041 21.286 29.2308 21.448 29.2308H34.7057Z" fill="#00EA64"/>
        <path d="M18.8462 10.7692H14.1311V17.6579H9.71508V10.7692H5V29.2308H9.71508V21.7684H14.1311V29.2308H18.8462V10.7692Z" fill="#fff"/>
    </symbol>
    <symbol id="CFP" viewBox="0 0 40 40">
        <rect width="40" height="40" fill="#1F95F5"/>
        <path d="M32.5 32.5H7.5V28.5H32.5V32.5Z" fill="white"/>
        <path d="M9.52441 20C9.91499 20 10.2623 20.0599 10.5654 20.1797C10.8716 20.2995 11.1122 20.4792 11.2871 20.7188C11.4621 20.9557 11.5498 21.2552 11.5498 21.6172V22.8047H9.90918V21.7891C9.90918 21.5834 9.87789 21.4453 9.81543 21.375C9.75294 21.3021 9.65565 21.2656 9.52441 21.2656C9.37159 21.2657 9.26893 21.3127 9.21582 21.4062C9.1627 21.4974 9.13574 21.6198 9.13574 21.7734V25.2148C9.13574 25.4049 9.16876 25.5391 9.23438 25.6172C9.30305 25.6952 9.39965 25.7343 9.52441 25.7344C9.66502 25.7344 9.76407 25.6862 9.82031 25.5898C9.87963 25.4935 9.90918 25.3684 9.90918 25.2148V23.9766H11.5684V25.2773C11.5684 25.8815 11.3851 26.3203 11.0195 26.5938C10.654 26.8645 10.1433 27 9.4873 27C8.89059 27 8.40951 26.845 8.04395 26.5352C7.68149 26.2253 7.5 25.7917 7.5 25.2344V22.0625C7.5 21.3958 7.65805 20.8854 7.97363 20.5312C8.2923 20.1772 8.80914 20.0001 9.52441 20Z" fill="white"/>
        <path fill-rule="evenodd" clip-rule="evenodd" d="M27.2412 20C27.9786 20 28.5274 20.1732 28.8867 20.5195C29.2459 20.8633 29.4258 21.3582 29.4258 22.0039V25.1055C29.4258 25.7174 29.2364 26.1862 28.8584 26.5117C28.4803 26.8372 27.9411 27 27.2412 27C26.5445 27 26.0052 26.8372 25.624 26.5117C25.2461 26.1862 25.0576 25.7174 25.0576 25.1055V22.0039C25.0576 21.3582 25.2365 20.8633 25.5957 20.5195C25.9581 20.1732 26.507 20 27.2412 20ZM27.2412 21.2656C27.0538 21.2656 26.9383 21.3269 26.8945 21.4492C26.8539 21.569 26.834 21.7096 26.834 21.8711V25.2656C26.834 25.3854 26.8695 25.4935 26.9414 25.5898C27.0164 25.6862 27.1163 25.7344 27.2412 25.7344C27.3693 25.7344 27.4692 25.6861 27.541 25.5898C27.6129 25.4935 27.6494 25.3854 27.6494 25.2656V21.8711C27.6494 21.7096 27.6268 21.569 27.583 21.4492C27.5424 21.3269 27.4286 21.2656 27.2412 21.2656Z" fill="white"/>
        <path fill-rule="evenodd" clip-rule="evenodd" d="M24.3398 24.7031H24.7803V25.8516H24.3398V26.9414H22.6572V25.8516H20.2109V24.7773L21.7715 20.0586H24.3398V24.7031ZM21.6826 24.7031H22.6572V21.2383L21.6826 24.7031Z" fill="white"/>
        <path d="M15.4209 21.4023H13.7803V22.4961H15.3369V23.8203H13.7803V26.9375H12.1211V20.0625H15.4209V21.4023Z" fill="white"/>
        <path fill-rule="evenodd" clip-rule="evenodd" d="M18.1348 20.0625C18.5907 20.0625 18.9513 20.1473 19.2168 20.3164C19.4855 20.4857 19.6783 20.7266 19.7939 21.0391C19.9095 21.3516 19.9668 21.724 19.9668 22.1562C19.9668 22.5729 19.9191 22.9362 19.8223 23.2461C19.7254 23.5534 19.5517 23.7917 19.3018 23.9609C19.0549 24.1302 18.7033 24.2148 18.2471 24.2148H17.5771V26.9375H15.9551V20.0625H18.1348ZM17.5771 22.9805H17.6709C17.9769 22.9804 18.1647 22.9088 18.2334 22.7656C18.3021 22.6224 18.3359 22.4114 18.3359 22.1328C18.3359 21.8725 18.3021 21.6719 18.2334 21.5312C18.1678 21.388 18.0097 21.3164 17.7598 21.3164H17.5771V22.9805Z" fill="white"/>
        <path d="M32.5 26.9375H30.752V21.6406C30.6395 21.7526 30.4848 21.8438 30.2881 21.9141C30.0914 21.9817 29.9053 22.0156 29.7305 22.0156V20.918C29.896 20.8971 30.0742 20.8528 30.2646 20.7852C30.4551 20.7149 30.6315 20.6197 30.7939 20.5C30.9595 20.3776 31.0863 20.2305 31.1738 20.0586H32.5V26.9375Z" fill="white"/>
        <path fill-rule="evenodd" clip-rule="evenodd" d="M21.5 5.37207C22.2361 5.49213 22.9435 5.69749 23.6104 5.98047L24.6172 4.41504L27.1416 6.03711L26.1445 7.58789C26.6979 8.0802 27.191 8.63797 27.6133 9.24902L29.2695 8.49316L29.7295 9.5H32.5V18L26 11L19 18H7.5V9.5H10.2705L10.7305 8.49316L12.3857 9.24902C12.8079 8.63799 13.3012 8.08021 13.8545 7.58789L12.8584 6.03711L15.3828 4.41504L16.3887 5.98047C17.0558 5.69731 17.7636 5.49218 18.5 5.37207V3.5H21.5V5.37207ZM20 6.7998C17.6851 6.7998 15.6187 7.85146 14.2432 9.5H25.7568C24.3813 7.85146 22.3149 6.7998 20 6.7998Z" fill="white"/>
    </symbol>
    <symbol id="Cisco" viewBox="0 0 40 40">
        <rect width="40" height="40" fill="#151521"/>
        <path d="M12.4529 16.8925V19.5634C12.4529 20.0031 12.2166 20.2853 11.8054 20.3597C11.3854 20.4341 10.9741 20.1563 10.9129 19.7559C10.9009 19.6748 10.8951 19.5929 10.8954 19.5109V12.0997C10.8954 11.625 11.112 11.3494 11.5407 11.2663C11.9629 11.1831 12.3851 11.4675 12.4398 11.8722C12.4507 11.9597 12.4529 12.0472 12.4529 12.1347V16.8925ZM10.3135 22.8622V24.4963C9.92501 24.2991 9.49573 24.1957 9.06008 24.1944C8.31633 24.1791 7.69289 24.5313 7.43258 25.1175C6.98414 26.1347 7.72352 27.1913 8.91352 27.2284C9.34008 27.2416 9.74695 27.1628 10.1341 26.9922L10.2698 26.9375L10.2873 26.9309H10.3004L10.3201 26.9375V27.2153C10.3201 27.6047 10.3201 27.9941 10.3157 28.3856C10.3157 28.4228 10.2654 28.4819 10.2282 28.4906C9.23289 28.7247 8.2507 28.7531 7.3057 28.2938C6.07195 27.6966 5.56008 26.5284 5.67164 25.3625C5.84227 23.6169 7.42164 22.5231 9.2482 22.6872C9.41445 22.7025 9.5807 22.72 9.74477 22.7463C9.87602 22.7681 10.0073 22.7966 10.1385 22.825L10.3135 22.8622ZM26.3282 24.4963V22.8425C26.2145 22.8272 26.1051 22.8075 25.9935 22.79C25.7512 22.7481 25.5075 22.7146 25.2629 22.6894C23.4451 22.5209 21.8613 23.6081 21.6885 25.3625C21.5791 26.4628 22.0123 27.6113 23.1935 28.2413C24.1691 28.7597 25.2016 28.7334 26.2473 28.4906C26.2823 28.4819 26.3304 28.4294 26.3304 28.3966C26.3348 27.9984 26.3348 27.6003 26.3348 27.1913V26.9134L26.2626 26.9441L26.1445 26.9944C25.7657 27.1605 25.3548 27.2404 24.9413 27.2284C23.7448 27.2 22.9945 26.1347 23.4495 25.1131C23.7076 24.5313 24.3332 24.1791 25.077 24.1944C25.5145 24.2009 25.9301 24.2928 26.3282 24.4963Z" fill="#02A5DD"/>
        <path fill-rule="evenodd" clip-rule="evenodd" d="M34.3413 25.7541C34.3413 24.0479 32.9719 22.766 31.1431 22.7638C29.3275 22.7638 27.9363 24.0588 27.9341 25.7519C27.9319 27.4407 29.3297 28.7532 31.1344 28.7488C32.9413 28.7488 34.3413 27.4429 34.3413 25.7541ZM32.74 25.7497C32.7488 26.5963 32.0335 27.27 31.1278 27.27C30.2375 27.27 29.531 26.5985 29.531 25.7519C29.5331 24.9075 30.2419 24.2382 31.1344 24.2382C32.0291 24.2382 32.7313 24.901 32.74 25.7475V25.7497Z" fill="#02A5DD"/>
        <path d="M19.7702 24.1638V22.9935C19.2282 22.8626 18.6718 22.8009 18.1143 22.8097C17.6462 22.8316 17.1977 22.93 16.7974 23.175C15.7912 23.7985 15.7037 25.2094 16.6399 25.8766C16.944 26.0932 17.2852 26.2332 17.6549 26.3294C17.9109 26.395 18.1734 26.4957 18.3899 26.6357C18.6568 26.8107 18.6218 27.1453 18.3484 27.3138C18.2549 27.3713 18.153 27.4141 18.0465 27.4407C17.644 27.5413 17.2371 27.5194 16.8324 27.456C16.6405 27.425 16.4494 27.3893 16.2593 27.3488L16.0077 27.2985V28.5978C16.4627 28.7203 17.6462 28.7838 18.0968 28.7247C18.569 28.6795 19.0235 28.522 19.4224 28.2653C20.4024 27.5938 20.4287 26.22 19.4596 25.5419C19.254 25.3975 19.0134 25.2969 18.7727 25.1985C18.712 25.1734 18.6515 25.1479 18.5912 25.1219C18.4709 25.0694 18.3462 25.0278 18.2237 24.9841C18.1041 24.9443 17.9859 24.9006 17.8693 24.8528C17.6943 24.7785 17.5849 24.6407 17.5981 24.4503C17.6112 24.2622 17.7468 24.1397 17.9218 24.1069C18.1974 24.0566 18.4818 24.0107 18.7596 24.0216C18.9937 24.0325 19.2256 24.0719 19.4596 24.1135L19.7702 24.1638ZM27.5971 14.635V19.6291C27.6015 20.1366 28.0762 20.4713 28.5859 20.34C28.9424 20.2482 29.1502 19.9616 29.1502 19.5482V12.0516C29.1502 12.0166 29.1502 11.9816 29.1459 11.9444C29.0999 11.4675 28.6646 11.1657 28.1834 11.2728C28.0138 11.3056 27.8615 11.3979 27.754 11.5331C27.6465 11.6683 27.5909 11.8374 27.5971 12.01V14.635ZM12.4596 22.8622H13.9909V28.5978H12.4596V22.8622ZM33.3152 16.991V16.0132V14.7597C33.3173 14.637 33.295 14.515 33.2496 14.401C33.1096 14.0816 32.7531 13.9175 32.379 13.9853C32.2088 14.0137 32.054 14.1012 31.9419 14.2324C31.8299 14.3637 31.7678 14.5303 31.7665 14.7028C31.7577 15.8732 31.7621 17.0435 31.7665 18.2138C31.7665 18.3144 31.7971 18.4238 31.8409 18.52C31.9189 18.673 32.0452 18.796 32.2003 18.87C32.3553 18.9439 32.5303 18.9647 32.6984 18.9291C32.8659 18.904 33.0193 18.8208 33.1317 18.694C33.244 18.5673 33.3083 18.405 33.3131 18.2357C33.3174 17.82 33.3174 17.4066 33.3152 16.991ZM24.9699 16.9866V18.1678C24.9746 18.27 24.9579 18.372 24.921 18.4674C24.8841 18.5628 24.8277 18.6494 24.7555 18.7219C24.6833 18.7943 24.5968 18.8509 24.5015 18.8881C24.4063 18.9252 24.3043 18.9422 24.2021 18.9378C24.0981 18.9435 23.994 18.9272 23.8966 18.8901C23.7993 18.8531 23.7107 18.796 23.6367 18.7227C23.5627 18.6493 23.505 18.5612 23.4671 18.4642C23.4292 18.3671 23.4121 18.2632 23.4168 18.1591V14.751C23.4114 14.6468 23.428 14.5427 23.4655 14.4454C23.503 14.348 23.5605 14.2597 23.6344 14.186C23.7082 14.1124 23.7968 14.0551 23.8942 14.0179C23.9916 13.9807 24.0958 13.9644 24.1999 13.97C24.6615 13.9722 24.9699 14.285 24.9699 14.7575V16.9844V16.9866ZM16.6268 16.9822V16.081V14.7575C16.6246 14.2894 16.3096 13.9722 15.8502 13.9722C15.3909 13.9722 15.0737 14.2872 15.0715 14.7553V18.1635C15.0667 18.2677 15.0839 18.3717 15.1219 18.4688C15.1599 18.5659 15.218 18.654 15.2922 18.7272C15.3665 18.8004 15.4553 18.8572 15.553 18.8939C15.6506 18.9306 15.7549 18.9463 15.859 18.94C15.9611 18.9431 16.0628 18.9251 16.1577 18.8872C16.2525 18.8493 16.3386 18.7922 16.4104 18.7195C16.4822 18.6469 16.5383 18.5602 16.5752 18.4649C16.612 18.3696 16.6289 18.2677 16.6246 18.1657V16.9844L16.6268 16.9822ZM6.72837 16.4441V15.8819V14.7575C6.72837 14.3178 6.97556 14.0116 7.35399 13.9766C7.80681 13.935 8.12618 14.1647 8.21806 14.611C8.25524 14.7903 8.27931 14.9763 8.27931 15.1578C8.28587 16.1597 8.28587 17.1594 8.28149 18.1591C8.28441 18.2852 8.2564 18.41 8.19991 18.5228C8.14343 18.6356 8.06018 18.7328 7.95746 18.8059C7.85474 18.8791 7.73566 18.926 7.61063 18.9425C7.48561 18.959 7.35844 18.9446 7.24024 18.9007C7.0908 18.8549 6.96018 18.7619 6.86792 18.6358C6.77566 18.5096 6.7267 18.357 6.72837 18.2007L6.72618 16.945V16.4419L6.72837 16.4441ZM19.2496 17.2119C19.2503 17.3709 19.2503 17.5298 19.2496 17.6888L19.2518 18.2072C19.2518 18.3984 19.3266 18.5819 19.4604 18.7185C19.5941 18.8551 19.776 18.9338 19.9671 18.9378C20.4112 18.9575 20.7677 18.695 20.7874 18.2772C20.8147 17.7227 20.8147 17.1671 20.7874 16.6125C20.7656 16.1969 20.4002 15.9257 19.9671 15.9497C19.7762 15.9554 19.5949 16.0349 19.4615 16.1716C19.328 16.3083 19.2529 16.4915 19.2518 16.6825L19.2496 17.2119ZM4.05743 17.4569V18.2094C4.04868 18.6294 3.71399 18.94 3.27868 18.9378C2.84118 18.9378 2.50868 18.6272 2.5043 18.205C2.49857 17.6968 2.49857 17.1886 2.5043 16.6803C2.50868 16.2603 2.84993 15.9475 3.28305 15.9497C3.71837 15.9497 4.04868 16.2647 4.05743 16.6847V17.4569ZM35.9402 17.2141V18.2028C35.9468 18.6228 36.2684 18.9335 36.6949 18.9378C37.1368 18.9444 37.4824 18.6469 37.4912 18.2247C37.5043 17.7085 37.5021 17.1922 37.4912 16.6782C37.4846 16.2538 37.1456 15.9475 36.7081 15.9497C36.6087 15.9474 36.5099 15.9649 36.4174 16.0012C36.3249 16.0374 36.2405 16.0918 36.1693 16.161C36.098 16.2303 36.0412 16.313 36.0023 16.4044C35.9633 16.4958 35.943 16.5941 35.9424 16.6935C35.9381 16.8663 35.9402 17.0413 35.9402 17.2141Z" fill="#02A5DD"/>
    </symbol>

</svg>
