<svg xmlns="http://www.w3.org/2000/svg">
    <!--!Font Awesome Free v7.1.0 by @fontawesome - https://fontawesome.com License - https://fontawesome.com/license/free Copyright 2025 Fonticons, Inc.-->
    <symbol id="chevron-right" viewBox="0 0 640 640">
		<path d="M471.1 297.4C483.6 309.9 483.6 330.2 471.1 342.7L279.1 534.7C266.6 547.2 246.3 547.2 233.8 534.7C221.3 522.2 221.3 501.9 233.8 489.4L403.2 320L233.9 150.6C221.4 138.1 221.4 117.8 233.9 105.3C246.4 92.8 266.7 92.8 279.2 105.3L471.2 297.3z" />
	</symbol>
    <symbol id="envelope" viewBox="0 0 640 640">
        <path d="M112 128C85.5 128 64 149.5 64 176C64 191.1 71.1 205.3 83.2 214.4L291.2 370.4C308.3 383.2 331.7 383.2 348.8 370.4L556.8 214.4C568.9 205.3 576 191.1 576 176C576 149.5 554.5 128 528 128L112 128zM64 260L64 448C64 483.3 92.7 512 128 512L512 512C547.3 512 576 483.3 576 448L576 260L377.6 408.8C343.5 434.4 296.5 434.4 262.4 408.8L64 260z"/>
    </symbol>
    <symbol id="calendar" viewBox="0 0 640 640">
        <path d="M224 64C206.3 64 192 78.3 192 96L192 128L160 128C124.7 128 96 156.7 96 192L96 240L544 240L544 192C544 156.7 515.3 128 480 128L448 128L448 96C448 78.3 433.7 64 416 64C398.3 64 384 78.3 384 96L384 128L256 128L256 96C256 78.3 241.7 64 224 64zM96 288L96 480C96 515.3 124.7 544 160 544L480 544C515.3 544 544 515.3 544 480L544 288L96 288z"/>
    </symbol>
    <symbol id="location" viewBox="0 0 640 640">
        <path d="M128 252.6C128 148.4 214 64 320 64C426 64 512 148.4 512 252.6C512 371.9 391.8 514.9 341.6 569.4C329.8 582.2 310.1 582.2 298.3 569.4C248.1 514.9 127.9 371.9 127.9 252.6zM320 320C355.3 320 384 291.3 384 256C384 220.7 355.3 192 320 192C284.7 192 256 220.7 256 256C256 291.3 284.7 320 320 320z"/>
    </symbol>
    <symbol id="github" viewBox="0 0 640 640">
        <path d="M237.9 461.4C237.9 463.4 235.6 465 232.7 465C229.4 465.3 227.1 463.7 227.1 461.4C227.1 459.4 229.4 457.8 232.3 457.8C235.3 457.5 237.9 459.1 237.9 461.4zM206.8 456.9C206.1 458.9 208.1 461.2 211.1 461.8C213.7 462.8 216.7 461.8 217.3 459.8C217.9 457.8 216 455.5 213 454.6C210.4 453.9 207.5 454.9 206.8 456.9zM251 455.2C248.1 455.9 246.1 457.8 246.4 460.1C246.7 462.1 249.3 463.4 252.3 462.7C255.2 462 257.2 460.1 256.9 458.1C256.6 456.2 253.9 454.9 251 455.2zM316.8 72C178.1 72 72 177.3 72 316C72 426.9 141.8 521.8 241.5 555.2C254.3 557.5 258.8 549.6 258.8 543.1C258.8 536.9 258.5 502.7 258.5 481.7C258.5 481.7 188.5 496.7 173.8 451.9C173.8 451.9 162.4 422.8 146 415.3C146 415.3 123.1 399.6 147.6 399.9C147.6 399.9 172.5 401.9 186.2 425.7C208.1 464.3 244.8 453.2 259.1 446.6C261.4 430.6 267.9 419.5 275.1 412.9C219.2 406.7 162.8 398.6 162.8 302.4C162.8 274.9 170.4 261.1 186.4 243.5C183.8 237 175.3 210.2 189 175.6C209.9 169.1 258 202.6 258 202.6C278 197 299.5 194.1 320.8 194.1C342.1 194.1 363.6 197 383.6 202.6C383.6 202.6 431.7 169 452.6 175.6C466.3 210.3 457.8 237 455.2 243.5C471.2 261.2 481 275 481 302.4C481 398.9 422.1 406.6 366.2 412.9C375.4 420.8 383.2 435.8 383.2 459.3C383.2 493 382.9 534.7 382.9 542.9C382.9 549.4 387.5 557.3 400.2 555C500.2 521.8 568 426.9 568 316C568 177.3 455.5 72 316.8 72zM169.2 416.9C167.9 417.9 168.2 420.2 169.9 422.1C171.5 423.7 173.8 424.4 175.1 423.1C176.4 422.1 176.1 419.8 174.4 417.9C172.8 416.3 170.5 415.6 169.2 416.9zM158.4 408.8C157.7 410.1 158.7 411.7 160.7 412.7C162.3 413.7 164.3 413.4 165 412C165.7 410.7 164.7 409.1 162.7 408.1C160.7 407.5 159.1 407.8 158.4 408.8zM190.8 444.4C189.2 445.7 189.8 448.7 192.1 450.6C194.4 452.9 197.3 453.2 198.6 451.6C199.9 450.3 199.3 447.3 197.3 445.4C195.1 443.1 192.1 442.8 190.8 444.4zM179.4 429.7C177.8 430.7 177.8 433.3 179.4 435.6C181 437.9 183.7 438.9 185 437.9C186.6 436.6 186.6 434 185 431.7C183.6 429.4 181 428.4 179.4 429.7z"/>
    </symbol>
    <symbol id="gitlab" viewBox="0 0 640 640">
        <path d="M568 268.6L567.3 266.8L497.6 85C496.2 81.4 493.7 78.4 490.4 76.4C488 74.8 485.3 73.9 482.4 73.6C479.5 73.3 476.7 73.7 474 74.7C471.3 75.7 468.9 77.4 466.9 79.5C465 81.6 463.6 84.2 462.8 86.9L415.8 230.9L225.3 230.9L178.2 86.9C177.4 84.1 176 81.6 174.1 79.5C172.1 77.4 169.7 75.8 167 74.7C164.4 73.7 161.5 73.3 158.6 73.6C155.7 73.9 153 74.8 150.6 76.4C147.4 78.4 144.8 81.5 143.4 85L73.8 266.8L73 268.6C63 294.8 61.7 323.6 69.5 350.6C77.2 377.5 93.5 401.3 115.9 418.2L116.2 418.4L116.8 418.8L222.8 498.3C261.3 527.4 289.5 548.6 307.4 562.2C311.1 564.1 315.7 566.5 320.4 566.5C325.1 566.5 329.7 564.1 333.4 562.2C351.3 548.7 379.5 527.3 418 498.3L524.7 418.4L525 418.1C547.4 401.2 563.7 377.5 570.6 350.6C579.2 323.6 578 294.8 568 268.6z"/>
    </symbol>
    <symbol id="linkedin" viewBox="0 0 640 640">
        <path d="M196.3 512L103.4 512L103.4 212.9L196.3 212.9L196.3 512zM149.8 172.1C120.1 172.1 96 147.5 96 117.8C96 103.5 101.7 89.9 111.8 79.8C121.9 69.7 135.6 64 149.8 64C164 64 177.7 69.7 187.8 79.8C197.9 89.9 203.6 103.6 203.6 117.8C203.6 147.5 179.5 172.1 149.8 172.1zM543.9 512L451.2 512L451.2 366.4C451.2 331.7 450.5 287.2 402.9 287.2C354.6 287.2 347.2 324.9 347.2 363.9L347.2 512L254.4 512L254.4 212.9L343.5 212.9L343.5 253.7L344.8 253.7C357.2 230.2 387.5 205.4 432.7 205.4C526.7 205.4 544 267.3 544 347.7L544 512L543.9 512z"/>
    </symbol>
    <symbol id="devto" viewBox="0 0 640 315">
        <path fill-rule="evenodd" clip-rule="evenodd" d="M179.672 224.584C179.672 260.323 157.658 314.467 87.9776 314.355H0V0H89.8357C157.033 0 179.634 54.0706 179.653 89.8273L179.672 224.584ZM92.9644 58.8202C100.321 58.8202 107.697 61.5764 115.054 67.0846C122.391 72.5928 126.089 80.8778 126.108 91.8977V224.224C126.108 235.261 122.429 243.525 115.073 249.037C107.716 254.545 100.34 257.301 92.9833 257.301H59.897V58.8202H92.9644Z"/>
        <path d="M370.567 56.1414H269.545V129.133H331.3V185.313H269.545V258.287H370.588V314.468H252.688C231.529 315.02 213.934 298.261 213.403 277.061V39.3658C212.891 18.1821 229.634 0.589063 250.775 0.0571289H370.588L370.567 56.1414Z"/>
        <path d="M567.078 275.179C542.049 333.601 497.207 321.973 477.129 275.179L404.071 0.0759277H465.826L522.16 216.131L578.224 0.0759277H640L567.078 275.179Z"/>
    </symbol>
    <symbol id="github-square" viewBox="0 0 640 640">
        <path d="M590 127.143C590 84.5938 555.406 50 512.857 50H127.143C84.5938 50 50 84.5938 50 127.143V512.857C50 555.406 84.5938 590 127.143 590H512.857C555.406 590 590 555.406 590 512.857V127.143ZM370.384 502.853C370.384 500.683 370.384 495.621 370.504 488.871C370.625 475.13 370.625 454.156 370.625 436.196C370.625 417.393 364.357 405.46 357.005 399.192C401.603 394.25 448.612 388.103 448.612 311.08C448.612 289.143 440.777 278.174 428 264.071C430.049 258.888 436.92 237.554 425.951 209.83C409.196 204.647 370.866 231.406 370.866 231.406C338.804 222.366 302.643 222.366 270.58 231.406C270.58 231.406 232.25 204.647 215.496 209.83C204.527 237.433 211.277 258.768 213.446 264.071C200.67 278.174 194.643 289.143 194.643 311.08C194.643 387.741 239.603 394.25 284.201 399.192C278.415 404.375 273.232 413.295 271.424 426.071C259.973 431.254 230.683 440.174 213.205 409.317C202.237 390.272 182.469 388.705 182.469 388.705C162.942 388.464 181.143 401 181.143 401C194.161 407.027 203.321 430.17 203.321 430.17C215.013 465.969 270.942 453.915 270.942 453.915C270.942 464.763 271.063 480.071 271.063 490.799C271.063 496.585 271.183 501.165 271.183 502.853C271.183 508.036 267.567 514.304 257.321 512.496C177.768 485.857 122.08 410.161 122.08 321.688C122.08 211.036 206.696 127.022 317.348 127.022C428 127.022 517.679 211.036 517.679 321.688C517.799 410.161 463.799 485.978 384.246 512.496C374.121 514.304 370.384 508.036 370.384 502.853Z"/>
    </symbol>
    <symbol id="gitlab-square" viewBox="0 0 640 640">
        <path d="M50 127.143V512.857C50 555.406 84.5938 590 127.143 590H512.857C555.406 590 590 555.406 590 512.857V127.143C590 84.5938 555.406 50 512.857 50H127.143C84.5938 50 50 84.5938 50 127.143ZM456.808 142.21L510.567 282.513L511.049 283.96C517.799 304.21 519.728 326.388 513.821 347.241C507.795 367.973 495.259 386.295 477.902 399.433L477.661 399.554L395.214 461.268L330.004 510.567C329.402 510.808 328.679 511.17 327.955 511.531C325.545 512.737 322.652 513.942 319.879 513.942C316.263 513.942 311.683 511.772 309.875 510.567L244.545 461.268L162.701 399.915L162.219 399.554L161.978 399.433C144.741 386.415 132.085 368.094 126.179 347.241C120.272 326.388 121.116 304.21 128.83 283.96L129.433 282.513L183.313 142.21C184.397 139.438 186.326 137.027 188.737 135.46C190.665 134.254 192.835 133.531 195.004 133.29C196.571 132.446 197.536 132.808 199.103 133.411C199.826 133.652 200.549 134.013 201.513 134.254C202.719 134.737 203.442 135.339 204.406 136.062C205.129 136.545 205.853 137.268 206.938 137.871C208.384 139.558 209.589 141.487 210.192 143.656L245.388 254.79H393.527L429.929 143.656C430.531 141.487 431.616 139.558 433.063 137.871C434.509 136.183 436.438 134.978 438.487 134.134C440.536 133.411 442.826 133.049 444.996 133.29C447.165 133.531 449.335 134.254 451.263 135.46C453.674 137.027 455.723 139.438 456.808 142.21Z"/>
    </symbol>
    <symbol id="linkedin-square" viewBox="0 0 640 640" >
        <path d="M127.143 50C84.5938 50 50 84.5938 50 127.143V512.857C50 555.406 84.5938 590 127.143 590H512.857C555.406 590 590 555.406 590 512.857V127.143C590 84.5938 555.406 50 512.857 50H127.143ZM133.17 255.152H213.326V512.857H133.17V255.152ZM219.594 173.549C219.594 199.223 198.862 219.955 173.188 219.955C147.513 219.955 126.781 199.223 126.781 173.549C126.781 147.875 147.513 127.143 173.188 127.143C198.862 127.143 219.594 147.875 219.594 173.549ZM433.183 512.857V387.5C433.183 357.607 432.58 319.156 391.598 319.156C349.893 319.156 343.504 351.701 343.504 385.33V512.857H263.469V255.152H340.25V290.348H341.335C352.063 270.098 378.219 248.763 417.152 248.763C498.152 248.763 513.219 302.161 513.219 371.589V512.857H433.183Z"/>
    </symbol>
    <symbol id="devto-square" viewBox="0 0 640 640">
        <path d="M194.763 262.504C190.063 259.009 185.362 257.321 180.781 257.321H159.808V383.281H180.781C185.482 383.281 190.183 381.594 194.763 378.098C199.344 374.603 201.754 369.299 201.754 362.308V278.295C201.754 271.304 199.344 266 194.763 262.504ZM537.085 50H102.915C73.7455 50 50.1205 73.625 50 102.795V537.205C50.1205 566.375 73.7455 590 102.915 590H537.085C566.254 590 589.879 566.375 590 537.205V102.795C589.879 73.625 566.254 50 537.085 50ZM235.866 362.429C235.866 385.089 221.884 419.442 177.527 419.442H121.598V219.955H178.732C221.402 219.955 235.866 254.308 235.866 276.969V362.429ZM357.246 255.513H293V301.799H332.295V337.478H293V383.763H357.246V419.442H282.272C268.772 419.804 257.683 409.196 257.321 395.696V244.906C256.96 231.527 267.688 220.317 281.067 219.955H357.246V255.513ZM482.121 394.491C466.21 431.496 437.763 424.143 424.987 394.491L378.58 219.955H417.875L453.674 357.004L489.353 219.955H528.647L482.241 394.491H482.121Z"/>
    </symbol>
    <symbol id="globe" viewBox="0 0 640 640">
        <path d="M415.9 344L225 344C227.9 408.5 242.2 467.9 262.5 511.4C273.9 535.9 286.2 553.2 297.6 563.8C308.8 574.3 316.5 576 320.5 576C324.5 576 332.2 574.3 343.4 563.8C354.8 553.2 367.1 535.8 378.5 511.4C398.8 467.9 413.1 408.5 416 344zM224.9 296L415.8 296C413 231.5 398.7 172.1 378.4 128.6C367 104.2 354.7 86.8 343.3 76.2C332.1 65.7 324.4 64 320.4 64C316.4 64 308.7 65.7 297.5 76.2C286.1 86.8 273.8 104.2 262.4 128.6C242.1 172.1 227.8 231.5 224.9 296zM176.9 296C180.4 210.4 202.5 130.9 234.8 78.7C142.7 111.3 74.9 195.2 65.5 296L176.9 296zM65.5 344C74.9 444.8 142.7 528.7 234.8 561.3C202.5 509.1 180.4 429.6 176.9 344L65.5 344zM463.9 344C460.4 429.6 438.3 509.1 406 561.3C498.1 528.6 565.9 444.8 575.3 344L463.9 344zM575.3 296C565.9 195.2 498.1 111.3 406 78.7C438.3 130.9 460.4 210.4 463.9 296L575.3 296z"/>
    </symbol>
    <symbol id="caret-right" viewBox="0 0 640 640">
        <path d="M441.3 299.8C451.5 312.4 450.8 330.9 439.1 342.6L311.1 470.6C301.9 479.8 288.2 482.5 276.2 477.5C264.2 472.5 256.5 460.9 256.5 448L256.5 192C256.5 179.1 264.3 167.4 276.3 162.4C288.3 157.4 302 160.2 311.2 169.3L439.2 297.3L441.4 299.7z"/>
    </symbol>
    <symbol id="figma" viewBox="0 0 640 640">
        <path d="M142 159.8C142 106.9 184.9 64 237.8 64L402.2 64C455.1 64 498 106.9 498 159.8C498 193.3 480.8 222.8 454.8 239.9C480.8 257 498 286.5 498 320C498 372.9 455.1 415.8 402.2 415.8L400.1 415.8C375.3 415.8 352.7 406.4 335.7 390.9L335.7 479.2C335.7 532.8 291.7 576 238.3 576C185.5 576 142 533.2 142 480.2C142 446.7 159.2 417.2 185.2 400.1C159.2 383 142 353.5 142 320C142 286.5 159.2 257 185.2 239.9C159.2 222.8 142 193.3 142 159.8zM304.3 255.6L237.8 255.6C202.2 255.6 173.4 284.4 173.4 320C173.4 355.4 202 384.2 237.4 384.4L304.3 384.4L304.3 255.6zM335.7 320C335.7 355.6 364.5 384.4 400.1 384.4L402.2 384.4C437.8 384.4 466.6 355.6 466.6 320C466.6 284.4 437.8 255.6 402.2 255.6L400.1 255.6C364.5 255.6 335.7 284.4 335.7 320zM237.8 415.8L237.4 415.8C202 416 173.4 444.8 173.4 480.2C173.4 515.6 202.6 544.6 238.3 544.6C274.6 544.6 304.3 515.2 304.3 479.1L304.3 415.7L237.8 415.7zM237.8 95.4C202.2 95.4 173.4 124.2 173.4 159.8C173.4 195.4 202.2 224.2 237.8 224.2L304.3 224.2L304.3 95.4L237.8 95.4zM335.7 224.2L402.2 224.2C437.8 224.2 466.6 195.4 466.6 159.8C466.6 124.2 437.8 95.4 402.2 95.4L335.7 95.4L335.7 224.2z"/>
    </symbol>
    <symbol id="image" viewBox="0 0 640 640">
        <path d="M160 144C151.2 144 144 151.2 144 160L144 480C144 488.8 151.2 496 160 496L480 496C488.8 496 496 488.8 496 480L496 160C496 151.2 488.8 144 480 144L160 144zM96 160C96 124.7 124.7 96 160 96L480 96C515.3 96 544 124.7 544 160L544 480C544 515.3 515.3 544 480 544L160 544C124.7 544 96 515.3 96 480L96 160zM224 192C241.7 192 256 206.3 256 224C256 241.7 241.7 256 224 256C206.3 256 192 241.7 192 224C192 206.3 206.3 192 224 192zM360 264C368.5 264 376.4 268.5 380.7 275.8L460.7 411.8C465.1 419.2 465.1 428.4 460.8 435.9C456.5 443.4 448.6 448 440 448L200 448C191.1 448 182.8 443 178.7 435.1C174.6 427.2 175.2 417.6 180.3 410.3L236.3 330.3C240.8 323.9 248.1 320.1 256 320.1C263.9 320.1 271.2 323.9 275.7 330.3L292.9 354.9L339.4 275.9C343.7 268.6 351.6 264.1 360.1 264.1z"/>
    </symbol>
    <symbol id="filter" viewBox="0 0 640 640">
        <path d="M96 128C83.1 128 71.4 135.8 66.4 147.8C61.4 159.8 64.2 173.5 73.4 182.6L256 365.3L256 480C256 488.5 259.4 496.6 265.4 502.6L329.4 566.6C338.6 575.8 352.3 578.5 364.3 573.5C376.3 568.5 384 556.9 384 544L384 365.3L566.6 182.7C575.8 173.5 578.5 159.8 573.5 147.8C568.5 135.8 556.9 128 544 128L96 128z"/>
    </symbol>
    <symbol id="star" viewBox="0 0 640 640">
        <path d="M341.5 45.1C337.4 37.1 329.1 32 320.1 32C311.1 32 302.8 37.1 298.7 45.1L225.1 189.3L65.2 214.7C56.3 216.1 48.9 222.4 46.1 231C43.3 239.6 45.6 249 51.9 255.4L166.3 369.9L141.1 529.8C139.7 538.7 143.4 547.7 150.7 553C158 558.3 167.6 559.1 175.7 555L320.1 481.6L464.4 555C472.4 559.1 482.1 558.3 489.4 553C496.7 547.7 500.4 538.8 499 529.8L473.7 369.9L588.1 255.4C594.5 249 596.7 239.6 593.9 231C591.1 222.4 583.8 216.1 574.8 214.7L415 189.3L341.5 45.1z"/>
    </symbol>
    <symbol id="moon" viewBox="0 0 640 640">
        <path d="M320 64C178.6 64 64 178.6 64 320C64 461.4 178.6 576 320 576C388.8 576 451.3 548.8 497.3 504.6C504.6 497.6 506.7 486.7 502.6 477.5C498.5 468.3 488.9 462.6 478.8 463.4C473.9 463.8 469 464 464 464C362.4 464 280 381.6 280 280C280 207.9 321.5 145.4 382.1 115.2C391.2 110.7 396.4 100.9 395.2 90.8C394 80.7 386.6 72.5 376.7 70.3C358.4 66.2 339.4 64 320 64z"/>
    </symbol>
    <symbol id="sun" viewBox="0 0 640 640">
        <path d="M210.2 53.9C217.6 50.8 226 51.7 232.7 56.1L320.5 114.3L408.3 56.1C415 51.7 423.4 50.9 430.8 53.9C438.2 56.9 443.4 63.5 445 71.3L465.9 174.5L569.1 195.4C576.9 197 583.5 202.4 586.5 209.7C589.5 217 588.7 225.5 584.3 232.2L526.1 320L584.3 407.8C588.7 414.5 589.5 422.9 586.5 430.3C583.5 437.7 576.9 443.1 569.1 444.6L465.8 465.4L445 568.7C443.4 576.5 438 583.1 430.7 586.1C423.4 589.1 414.9 588.3 408.2 583.9L320.4 525.7L232.6 583.9C225.9 588.3 217.5 589.1 210.1 586.1C202.7 583.1 197.3 576.5 195.8 568.7L175 465.4L71.7 444.5C63.9 442.9 57.3 437.5 54.3 430.2C51.3 422.9 52.1 414.4 56.5 407.7L114.7 320L56.5 232.2C52.1 225.5 51.3 217.1 54.3 209.7C57.3 202.3 63.9 196.9 71.7 195.4L175 174.6L195.9 71.3C197.5 63.5 202.9 56.9 210.2 53.9zM239.6 320C239.6 275.6 275.6 239.6 320 239.6C364.4 239.6 400.4 275.6 400.4 320C400.4 364.4 364.4 400.4 320 400.4C275.6 400.4 239.6 364.4 239.6 320zM448.4 320C448.4 249.1 390.9 191.6 320 191.6C249.1 191.6 191.6 249.1 191.6 320C191.6 390.9 249.1 448.4 320 448.4C390.9 448.4 448.4 390.9 448.4 320z"/>
    </symbol>
    <symbol id="circle-half-stroke" viewBox="0 0 640 640">
        <path d="M512 320C512 214 426 128 320 128L320 512C426 512 512 426 512 320zM64 320C64 178.6 178.6 64 320 64C461.4 64 576 178.6 576 320C576 461.4 461.4 576 320 576C178.6 576 64 461.4 64 320z"/>
    </symbol>
    <symbol id="share" viewBox="0 0 640 640">
        <path d="M448 256C501 256 544 213 544 160C544 107 501 64 448 64C395 64 352 107 352 160C352 165.4 352.5 170.8 353.3 176L223.6 248.1C206.7 233.1 184.4 224 160 224C107 224 64 267 64 320C64 373 107 416 160 416C184.4 416 206.6 406.9 223.6 391.9L353.3 464C352.4 469.2 352 474.5 352 480C352 533 395 576 448 576C501 576 544 533 544 480C544 427 501 384 448 384C423.6 384 401.4 393.1 384.4 408.1L254.7 336C255.6 330.8 256 325.5 256 320C256 314.5 255.5 309.2 254.7 304L384.4 231.9C401.3 246.9 423.6 256 448 256z"/>
    </symbol>
</svg>
